<svg width="200" height="200" viewBox="0 0 200 200" xmlns="http://www.w3.org/2000/svg">
  <defs>
    <linearGradient id="grad1" x1="0%" y1="0%" x2="100%" y2="100%">
      <stop offset="0%" style="stop-color:#00d4ff"/>
      <stop offset="100%" style="stop-color:#9b59b6"/>
    </linearGradient>
    
    <linearGradient id="grad2" x1="100%" y1="0%" x2="0%" y2="100%">
      <stop offset="0%" style="stop-color:#9b59b6"/>
      <stop offset="100%" style="stop-color:#00d4ff"/>
    </linearGradient>
  </defs>
  
  <!-- Fondo circular sutil -->
  <circle cx="100" cy="100" r="90" fill="none" stroke="url(#grad1)" stroke-width="2" opacity="0.2"/>
  
  <!-- Logo principal - Hexágono fragmentado representando el caos organizado -->
  <g transform="translate(100,100)">
    
    <!-- Hexágono base -->
    <polygon points="0,-40 35,-20 35,20 0,40 -35,20 -35,-20" 
             fill="none" 
             stroke="url(#grad1)" 
             stroke-width="3"/>
    
    <!-- Fragmentos internos que crean la "C" -->
    <!-- Fragmento superior izquierdo -->
    <polygon points="-35,-20 0,-40 0,-15 -20,-5" 
             fill="url(#grad1)" 
             opacity="0.8"/>
    
    <!-- Fragmento medio izquierdo -->
    <polygon points="-35,-20 -35,20 -15,10 -20,-5" 
             fill="url(#grad2)" 
             opacity="0.9"/>
    
    <!-- Fragmento inferior izquierdo -->
    <polygon points="-35,20 0,40 0,15 -15,10" 
             fill="url(#grad1)" 
             opacity="0.7"/>
    
    <!-- Pequeños elementos dispersos -->
    <rect x="45" y="-5" width="8" height="8" fill="url(#grad1)" rx="2" opacity="0.6"/>
    <circle cx="-50" cy="0" r="4" fill="url(#grad2)" opacity="0.5"/>
    <polygon points="25,-35 30,-30 25,-25" fill="url(#grad1)" opacity="0.4"/>
    
    <!-- Líneas de conexión sutiles -->
    <line x1="35" y1="-20" x2="45" y2="-1" stroke="url(#grad1)" stroke-width="1" opacity="0.3"/>
    <line x1="-35" y1="0" x2="-50" y2="0" stroke="url(#grad2)" stroke-width="1" opacity="0.3"/>
  </g>
  
</svg>